<svg xmlns="http://www.w3.org/2000/svg" viewBox="341 520 3414 2960">
  <path d="M2004.05 3413.98C1915.93 3410.45 1828.71 3398.61 1742.07 3378.42C1666.33 3360.77 1575.36 3330.83 1510.50 3302.21C1476.40 3287.16 1426.87 3263.15 1406.18 3251.63C1356.72 3224.11 1328.57 3206.90 1281.02 3175.11C1219.64 3134.08 1143.10 3072.16 1091.13 3021.51C1032.54 2964.40 999.66 2927.99 949.50 2864.70C928.03 2837.61 924.98 2833.40 898.77 2794.49C866.67 2746.84 843.19 2708.87 826.72 2678.00C790.58 2610.26 773.06 2572.01 744.04 2497.50C719.95 2435.65 691.84 2336.24 678.58 2266.00C676.03 2252.46 667.69 2203.74 666.00 2192.50C661.66 2163.55 657.79 2116.96 655.91 2071.00C654.55 2037.70 655.17 1949.72 656.96 1920.50C658.35 1897.91 661.74 1857.75 663.04 1848.50C663.58 1844.65 664.67 1835.20 665.46 1827.50C666.82 1814.19 671.59 1783.38 675.98 1759.50C677.09 1753.45 678.52 1745.46 679.15 1741.75L680.29 1735.00L717.98 1735.00C738.71 1735.00 755.88 1735.22 756.14 1735.48C756.41 1735.74 755.80 1741.25 754.80 1747.73C749.38 1782.85 743.57 1825.17 742.49 1837.50C742.16 1841.35 741.02 1851.47 739.96 1860.00C737.61 1878.95 734.28 1922.79 731.90 1966.00C729.75 2005.24 731.27 2063.51 735.57 2105.86C739.44 2144.04 744.21 2186.63 746.06 2199.50C753.79 2253.26 768.12 2317.75 787.05 2384.00C799.88 2428.90 814.70 2469.92 837.80 2524.50C853.14 2560.75 880.80 2618.08 893.51 2640.00C897.18 2646.32 901.13 2653.30 902.29 2655.50C904.44 2659.57 930.40 2702.63 939.99 2718.04C967.75 2762.63 1022.58 2836.21 1056.94 2874.98C1086.05 2907.83 1116.58 2940.11 1137.51 2960.18C1210.33 3030.03 1270.06 3077.89 1348.50 3129.26C1421.73 3177.22 1496.23 3216.23 1572.10 3246.35C1612.81 3262.51 1650.15 3275.43 1691.00 3287.47C1740.26 3302.00 1787.05 3312.75 1845.00 3322.86C1895.67 3331.70 1918.02 3334.39 1981.00 3339.23C2003.36 3340.95 2101.19 3340.92 2126.00 3339.19C2192.28 3334.57 2223.68 3330.60 2294.04 3317.96C2379.84 3302.54 2474.73 3273.44 2559.00 3236.69C2598.99 3219.25 2648.64 3195.15 2670.00 3182.81C2675.22 3179.79 2683.10 3175.38 2687.50 3173.00C2743.20 3142.90 2821.93 3089.13 2871.50 3047.34L2882.50 3038.06L2885.89 3027.37C2888.75 3018.37 2890.25 3015.41 2895.45 3008.59C2904.70 2996.46 2919.31 2985.88 2933.62 2980.96C2941.93 2978.10 2942.00 2977.99 2941.98 2968.13C2941.97 2958.36 2939.56 2917.60 2938.10 2902.50C2937.58 2897.00 2936.64 2884.40 2936.04 2874.50C2935.43 2864.60 2934.27 2849.97 2933.46 2842.00C2932.65 2834.03 2931.73 2823.55 2931.40 2818.72L2930.81 2809.93L2924.04 2804.22C2910.68 2792.93 2896.49 2781.59 2884.50 2772.61C2879.55 2768.91 2871.29 2762.64 2866.13 2758.69C2860.98 2754.73 2854.23 2749.57 2851.13 2747.22C2845.92 2743.25 2842.54 2740.58 2822.69 2724.78C2818.73 2721.63 2814.38 2718.28 2813.00 2717.33C2803.72 2710.91 2776.35 2683.43 2764.86 2669.00C2759.40 2662.12 2752.69 2653.69 2749.96 2650.26C2747.23 2646.83 2745.00 2643.76 2745.00 2643.44C2745.00 2643.12 2742.15 2638.50 2738.66 2633.18C2728.16 2617.17 2710.92 2582.70 2692.79 2541.50C2688.92 2532.70 2683.29 2520.32 2680.27 2514.00C2659.58 2470.60 2652.51 2456.27 2651.01 2454.67C2647.97 2451.43 2630.44 2447.70 2605.00 2444.87C2582.76 2442.39 2534.69 2444.02 2511.83 2448.03C2508.90 2448.54 2502.90 2449.46 2498.50 2450.07C2494.10 2450.67 2485.10 2452.07 2478.50 2453.17C2461.20 2456.05 2445.99 2457.79 2445.46 2456.94C2445.22 2456.54 2445.42 2454.03 2445.93 2451.36C2446.43 2448.68 2447.36 2442.68 2447.98 2438.00C2448.61 2433.32 2450.69 2422.07 2452.62 2413.00C2455.72 2398.35 2456.65 2395.55 2460.94 2388.00C2463.59 2383.32 2467.57 2375.22 2469.79 2370.00C2472.01 2364.78 2475.94 2356.00 2478.52 2350.50C2490.11 2325.83 2498.47 2306.88 2501.03 2299.50C2502.55 2295.10 2506.15 2284.75 2509.02 2276.50C2514.38 2261.07 2519.23 2244.55 2520.47 2237.50C2520.85 2235.30 2522.21 2229.90 2523.48 2225.50C2528.89 2206.77 2534.31 2171.04 2535.55 2146.00C2535.81 2140.78 2536.22 2132.68 2536.47 2128.00C2537.87 2101.99 2533.12 2036.61 2527.09 1999.00C2521.19 1962.20 2520.45 1957.85 2517.87 1944.92C2514.96 1930.31 2509.98 1899.69 2510.43 1899.23C2510.98 1898.69 2529.84 1914.49 2547.85 1930.58C2578.56 1958.01 2584.69 1963.25 2591.10 1967.54C2595.22 1970.29 2606.49 1975.49 2621.10 1981.37C2633.97 1986.55 2649.45 1992.81 2655.50 1995.28C2661.55 1997.75 2672.80 2002.35 2680.50 2005.50C2688.20 2008.65 2698.78 2013.24 2704.00 2015.70C2709.22 2018.16 2717.32 2021.76 2722.00 2023.71C2748.98 2034.93 2786.29 2054.08 2802.80 2065.18C2827.97 2082.10 2855.28 2107.03 2873.01 2129.28C2876.05 2133.11 2879.52 2136.38 2880.96 2136.78C2882.35 2137.18 2902.18 2137.50 2925.00 2137.50C2969.38 2137.50 2975.41 2137.06 3008.00 2131.44C3026.17 2128.31 3054.00 2121.18 3065.64 2116.67C3070.51 2114.78 3075.62 2112.89 3077.00 2112.47C3080.84 2111.30 3117.62 2094.29 3125.50 2090.04C3129.35 2087.96 3136.55 2084.11 3141.50 2081.48C3159.69 2071.80 3181.11 2056.78 3198.00 2041.88C3222.74 2020.05 3254.31 1982.03 3274.67 1949.54C3278.82 1942.92 3285.23 1933.00 3288.93 1927.50C3292.62 1922.00 3297.62 1914.25 3300.04 1910.27C3302.46 1906.29 3304.73 1903.37 3305.09 1903.77C3306.00 1904.79 3312.23 1925.21 3315.83 1939.00C3319.49 1952.99 3321.82 1974.34 3322.65 2001.50C3324.10 2049.25 3314.96 2091.33 3295.29 2127.39C3280.98 2153.65 3264.53 2173.91 3244.20 2190.32C3237.44 2195.78 3232.15 2200.49 3232.45 2200.79C3232.75 2201.08 3241.21 2201.90 3251.25 2202.60C3275.87 2204.32 3280.00 2204.87 3280.00 2206.45C3280.00 2208.27 3266.14 2221.60 3254.91 2230.58C3232.37 2248.60 3209.93 2261.85 3175.50 2277.46C3172.75 2278.70 3163.61 2281.83 3155.20 2284.41C3129.45 2292.30 3113.91 2295.06 3083.59 2297.12C3066.75 2298.26 3062.78 2298.21 3047.26 2296.66C3018.55 2293.78 2994.28 2288.57 2961.76 2278.31C2953.65 2275.75 2946.80 2273.87 2946.53 2274.13C2946.27 2274.39 2947.36 2279.76 2948.94 2286.05C2959.74 2328.92 2963.78 2376.38 2962.39 2444.00C2960.35 2542.77 2963.14 2571.40 2979.51 2620.00C2985.38 2637.43 2991.21 2650.36 3003.03 2672.17C3011.60 2687.99 3021.11 2702.10 3036.96 2722.50C3053.10 2743.27 3052.85 2742.85 3053.94 2750.64C3055.35 2760.68 3055.43 2852.05 3054.03 2859.50C3051.84 2871.21 3051.75 2872.00 3052.62 2871.99C3053.10 2871.99 3055.59 2868.95 3058.14 2865.24C3062.68 2858.64 3067.27 2852.80 3090.19 2824.46C3104.39 2806.90 3113.62 2794.60 3123.17 2780.50C3155.92 2732.16 3164.92 2718.71 3172.89 2706.18C3177.90 2698.31 3182.00 2691.68 3182.00 2691.45C3182.00 2690.97 3187.16 2682.25 3190.54 2677.00C3191.78 2675.07 3194.47 2670.35 3196.51 2666.50C3198.56 2662.65 3201.02 2658.38 3201.98 2657.00C3202.94 2655.62 3208.58 2645.05 3214.51 2633.50C3220.45 2621.95 3225.63 2612.05 3226.04 2611.50C3227.05 2610.11 3249.14 2565.97 3252.81 2558.00C3254.45 2554.43 3257.67 2547.45 3259.95 2542.50C3273.88 2512.35 3300.90 2442.24 3310.44 2411.50C3312.49 2404.90 3314.57 2398.38 3315.05 2397.00C3317.01 2391.44 3330.39 2343.58 3333.65 2330.50C3338.66 2310.38 3345.83 2278.22 3348.03 2266.00C3349.07 2260.22 3351.30 2247.85 3352.99 2238.50C3354.69 2229.15 3357.40 2213.40 3359.02 2203.50C3360.65 2193.60 3362.43 2183.25 3362.99 2180.50C3364.06 2175.22 3368.37 2138.04 3369.49 2124.50C3369.85 2120.10 3370.79 2112.38 3371.58 2107.35C3373.31 2096.40 3374.88 2060.80 3375.66 2015.00C3376.38 1973.08 3373.43 1908.10 3369.99 1889.94C3368.10 1879.99 3364.04 1881.00 3405.87 1881.00L3442.74 1881.00L3443.38 1884.75C3449.89 1922.63 3452.32 1971.31 3450.91 2035.50C3449.71 2090.15 3446.78 2137.03 3442.48 2170.50C3434.98 2228.87 3430.31 2254.79 3414.45 2326.00C3407.46 2357.38 3400.24 2384.58 3391.33 2413.00C3375.20 2464.49 3360.13 2506.02 3343.97 2543.50C3341.13 2550.10 3337.53 2558.65 3335.98 2562.50C3334.44 2566.35 3330.41 2575.35 3327.03 2582.50C3323.66 2589.65 3318.58 2600.45 3315.75 2606.50C3306.49 2626.25 3288.18 2661.81 3272.73 2690.00C3257.29 2718.17 3230.89 2760.99 3207.68 2795.50C3200.23 2806.56 3177.70 2836.78 3156.98 2863.50C3153.56 2867.90 3148.25 2874.88 3145.18 2879.00C3142.10 2883.12 3135.52 2891.16 3130.54 2896.87C3125.57 2902.57 3120.09 2909.09 3118.37 2911.37C3116.64 2913.64 3107.02 2924.72 3096.98 2936.00C3039.93 3000.07 2973.39 3063.64 2918.50 3106.51C2888.15 3130.22 2880.69 3135.89 2866.37 3146.18C2858.19 3152.05 2846.32 3160.56 2840.00 3165.10C2813.76 3183.92 2770.18 3212.05 2746.50 3225.45C2739.90 3229.19 2731.57 3233.95 2728.00 3236.04C2680.09 3264.03 2605.99 3299.29 2547.00 3322.17C2456.99 3357.09 2364.12 3382.62 2269.50 3398.45C2230.39 3404.99 2183.62 3409.98 2133.00 3413.02C2109.16 3414.44 2030.35 3415.04 2004.05 3413.98ZM1657.67 3075.33C1655.94 3073.61 1657.73 3048.12 1660.54 3034.40C1662.56 3024.48 1669.86 3006.99 1675.15 2999.33C1681.39 2990.31 1689.65 2982.32 1699.45 2975.82C1714.68 2965.72 1723.58 2962.17 1743.50 2958.28L1747.50 2957.50L1748.11 2916.00C1749.31 2834.57 1749.14 2802.06 1747.46 2792.38C1746.61 2787.50 1745.06 2778.55 1744.00 2772.50C1742.94 2766.45 1739.79 2748.00 1736.99 2731.50C1730.30 2692.08 1725.08 2661.59 1724.06 2656.00C1723.61 2653.53 1721.41 2640.70 1719.16 2627.50C1714.73 2601.39 1710.68 2578.50 1703.00 2536.00C1695.56 2494.85 1684.45 2431.30 1682.01 2416.00C1678.43 2393.49 1676.89 2388.70 1667.47 2370.84C1662.73 2361.85 1657.35 2351.35 1655.53 2347.50C1653.70 2343.65 1649.65 2335.10 1646.52 2328.50C1630.95 2295.64 1613.68 2243.64 1607.00 2209.50C1606.35 2206.20 1605.42 2201.47 1604.92 2199.00C1602.97 2189.28 1598.08 2156.97 1597.12 2147.50C1593.85 2115.08 1595.48 2068.89 1600.99 2038.00C1601.53 2034.97 1603.08 2023.95 1604.45 2013.50C1608.91 1979.38 1615.71 1931.95 1616.45 1929.91C1617.01 1928.33 1618.34 1916.73 1620.49 1894.50C1622.20 1876.79 1622.46 1832.97 1620.93 1820.91C1619.52 1809.82 1615.55 1790.25 1612.93 1781.50C1611.78 1777.65 1610.41 1772.70 1609.88 1770.50C1608.04 1762.80 1595.31 1738.74 1587.57 1728.34C1573.65 1709.66 1560.42 1698.46 1540.50 1688.49C1520.65 1678.57 1503.78 1677.67 1475.50 1685.04C1462.06 1688.54 1427.87 1700.42 1415.45 1705.92C1412.86 1707.06 1410.19 1708.00 1409.50 1708.00C1407.90 1708.00 1394.66 1712.29 1385.00 1715.93C1380.88 1717.49 1368.72 1721.56 1358.00 1724.98C1347.28 1728.40 1333.87 1732.73 1328.21 1734.60C1322.55 1736.47 1317.44 1738.00 1316.86 1738.00C1316.27 1738.00 1310.71 1735.75 1304.50 1733.00C1298.29 1730.25 1292.95 1728.00 1292.64 1728.00C1291.03 1728.00 1271.69 1715.11 1264.11 1709.00C1259.76 1705.48 1246.98 1690.75 1247.02 1689.28C1247.03 1688.85 1249.33 1687.15 1252.13 1685.50C1254.92 1683.85 1258.29 1681.23 1259.61 1679.67C1261.99 1676.85 1262.00 1676.77 1262.00 1651.72L1262.00 1626.58L1266.25 1630.63C1276.40 1640.30 1297.15 1655.50 1301.77 1656.66C1305.46 1657.58 1312.78 1655.29 1324.50 1649.53C1330.55 1646.56 1340.78 1641.65 1347.22 1638.63C1374.77 1625.73 1403.74 1607.37 1429.00 1586.79C1443.51 1574.97 1446.00 1572.64 1446.00 1570.84C1446.00 1566.59 1419.34 1548.41 1404.50 1542.54C1400.65 1541.02 1393.45 1538.06 1388.50 1535.97C1372.21 1529.09 1353.86 1524.90 1331.06 1522.86C1318.89 1521.78 1313.66 1521.84 1292.73 1523.34C1271.55 1524.86 1244.11 1528.20 1241.98 1529.51C1241.58 1529.76 1240.95 1537.73 1240.58 1547.23C1239.83 1566.58 1239.38 1570.00 1237.61 1570.00C1236.93 1570.00 1230.95 1566.40 1224.31 1562.00C1211.51 1553.52 1198.24 1541.64 1195.57 1536.26C1192.84 1530.77 1187.93 1525.99 1181.88 1522.94C1170.93 1517.41 1161.49 1510.60 1153.63 1502.55C1146.53 1495.29 1145.07 1493.08 1138.77 1480.00C1134.92 1472.03 1128.39 1457.62 1124.26 1448.00C1120.13 1438.38 1115.86 1428.75 1114.78 1426.60C1111.54 1420.19 1110.68 1410.94 1112.77 1404.90C1114.31 1400.43 1115.02 1399.64 1118.51 1398.42C1128.88 1394.83 1148.19 1389.70 1165.00 1386.08C1184.48 1381.88 1193.85 1379.73 1213.50 1374.97C1220.10 1373.37 1230.45 1370.98 1236.50 1369.65C1242.55 1368.33 1254.70 1365.59 1263.50 1363.58C1272.30 1361.56 1284.67 1358.79 1291.00 1357.42C1297.33 1356.04 1304.30 1354.50 1306.50 1353.99C1308.70 1353.47 1315.67 1351.95 1322.00 1350.60C1350.30 1344.57 1348.93 1345.00 1354.27 1340.62C1357.04 1338.36 1361.49 1333.35 1364.15 1329.50C1372.56 1317.34 1408.13 1271.70 1417.91 1260.50C1425.61 1251.69 1434.69 1247.04 1451.00 1243.56C1466.49 1240.25 1489.34 1235.25 1515.50 1229.45C1526.50 1227.00 1542.47 1223.50 1551.00 1221.65C1559.53 1219.80 1573.92 1216.42 1583.00 1214.15C1606.61 1208.23 1644.38 1199.35 1652.00 1197.93C1658.54 1196.70 1663.38 1194.82 1664.45 1193.07C1664.77 1192.56 1666.78 1185.46 1668.90 1177.32C1676.05 1149.91 1678.09 1142.58 1684.00 1123.00C1687.24 1112.28 1691.23 1098.78 1692.88 1093.00C1694.53 1087.22 1697.42 1077.10 1699.32 1070.50C1701.22 1063.90 1704.46 1052.42 1706.53 1045.00C1709.78 1033.31 1713.50 1022.17 1714.47 1021.20C1715.30 1020.37 1734.01 1041.74 1741.57 1052.16C1743.70 1055.10 1749.56 1062.67 1754.58 1069.00C1765.54 1082.79 1776.21 1098.88 1786.07 1116.50C1792.64 1128.23 1802.00 1146.44 1802.00 1147.48C1802.00 1147.71 1804.54 1153.43 1807.64 1160.20C1810.74 1166.96 1814.53 1176.10 1816.06 1180.50C1817.59 1184.90 1819.72 1190.75 1820.79 1193.50C1826.94 1209.29 1837.21 1237.88 1839.85 1246.51C1841.54 1252.02 1843.88 1257.57 1845.06 1258.83C1846.24 1260.10 1850.65 1263.67 1854.85 1266.77C1859.06 1269.87 1867.63 1276.70 1873.91 1281.95C1880.18 1287.20 1887.83 1293.49 1890.91 1295.92C1904.95 1307.03 1944.98 1346.54 1965.46 1369.50C1970.86 1375.55 1977.80 1382.82 1980.89 1385.65C1983.98 1388.49 1986.25 1391.06 1985.95 1391.37C1985.42 1391.92 1955.24 1388.38 1937.75 1385.72C1931.29 1384.74 1929.00 1384.69 1929.00 1385.54C1929.00 1386.17 1934.72 1394.29 1941.71 1403.59C1972.61 1444.70 2002.44 1493.20 2018.85 1529.01C2021.24 1534.23 2024.28 1540.84 2025.60 1543.69C2028.51 1549.97 2029.10 1551.48 2034.16 1565.50C2039.61 1580.58 2041.63 1586.86 2044.63 1597.97C2046.04 1603.21 2047.56 1607.89 2048.01 1608.36C2049.16 1609.58 2050.47 1606.59 2052.52 1598.00C2055.47 1585.61 2066.22 1556.71 2075.83 1535.30C2083.27 1518.73 2098.12 1488.80 2100.05 1486.50C2100.97 1485.40 2103.07 1482.03 2104.71 1479.00C2115.77 1458.61 2141.10 1422.20 2164.18 1393.51C2168.81 1387.76 2170.07 1385.00 2168.05 1385.00C2167.53 1385.00 2162.02 1385.65 2155.80 1386.44C2149.59 1387.24 2139.32 1388.38 2133.00 1388.98C2126.68 1389.59 2119.81 1390.35 2117.75 1390.67C2115.16 1391.07 2114.00 1390.88 2114.00 1390.04C2114.00 1387.07 2165.54 1333.01 2185.76 1314.77C2199.60 1302.29 2198.33 1303.41 2211.53 1292.00C2216.94 1287.33 2223.42 1281.65 2225.93 1279.40C2228.44 1277.14 2234.79 1272.15 2240.03 1268.30C2249.56 1261.31 2254.40 1256.56 2255.38 1253.26C2255.67 1252.29 2257.09 1247.22 2258.54 1242.00C2259.99 1236.78 2263.09 1227.55 2265.44 1221.50C2267.80 1215.45 2272.96 1201.72 2276.92 1191.00C2293.32 1146.60 2312.01 1111.03 2336.59 1077.42C2344.75 1066.27 2357.43 1049.59 2362.76 1043.00C2368.18 1036.30 2381.94 1022.00 2382.97 1022.00C2383.78 1022.00 2386.89 1031.48 2389.53 1042.00C2390.43 1045.58 2393.21 1055.70 2395.70 1064.50C2398.20 1073.30 2401.71 1086.12 2403.51 1093.00C2405.31 1099.88 2408.22 1110.22 2409.97 1116.00C2411.72 1121.78 2413.53 1127.85 2413.99 1129.50C2414.46 1131.15 2417.16 1140.38 2420.01 1150.00C2422.85 1159.62 2425.57 1169.36 2426.04 1171.64C2427.64 1179.37 2432.21 1192.49 2433.86 1194.10C2434.76 1194.98 2441.80 1197.14 2449.50 1198.91C2457.20 1200.67 2469.12 1203.45 2476.00 1205.08C2482.88 1206.71 2495.03 1209.60 2503.00 1211.49C2510.97 1213.39 2519.97 1215.64 2523.00 1216.49C2528.93 1218.17 2535.73 1219.69 2554.50 1223.54C2561.10 1224.89 2571.22 1227.12 2577.00 1228.50C2582.78 1229.88 2596.72 1233.03 2608.00 1235.50C2619.28 1237.98 2633.22 1241.14 2639.00 1242.52C2644.78 1243.90 2651.75 1245.52 2654.50 1246.12C2667.61 1248.97 2676.57 1255.79 2688.57 1272.07C2691.83 1276.49 2696.98 1283.34 2700.01 1287.30C2703.05 1291.26 2706.20 1295.46 2707.01 1296.64C2709.56 1300.31 2726.92 1323.09 2733.74 1331.70C2742.31 1342.51 2745.08 1344.21 2758.50 1346.90C2770.19 1349.25 2808.50 1357.84 2844.00 1366.08C2890.79 1376.94 2904.46 1380.08 2928.50 1385.49C2960.42 1392.66 2977.66 1397.40 2980.25 1399.69C2981.37 1400.68 2983.12 1403.35 2984.14 1405.62C2985.73 1409.18 2985.83 1410.55 2984.91 1415.62C2983.61 1422.72 2980.31 1431.30 2973.98 1444.00C2971.38 1449.22 2968.00 1456.65 2966.47 1460.50C2960.91 1474.50 2948.82 1498.58 2945.70 1501.89C2942.08 1505.72 2926.47 1516.19 2917.48 1520.82C2908.35 1525.52 2906.39 1527.12 2901.88 1533.55C2899.59 1536.82 2894.74 1542.58 2891.11 1546.34C2884.12 1553.56 2861.86 1571.00 2859.61 1571.00C2857.92 1571.00 2857.02 1561.92 2856.99 1544.50C2856.98 1537.35 2856.60 1530.92 2856.14 1530.20C2854.13 1527.03 2795.44 1521.34 2775.50 1522.39C2734.26 1524.55 2702.94 1534.35 2665.22 1556.90C2657.45 1561.55 2651.00 1567.72 2651.00 1570.51C2651.00 1574.30 2677.76 1595.86 2703.50 1612.79C2727.20 1628.39 2779.64 1654.63 2792.76 1657.46C2797.67 1658.52 2802.87 1655.49 2816.00 1643.92C2822.32 1638.34 2829.12 1632.50 2831.10 1630.93L2834.69 1628.08L2835.35 1643.20C2835.71 1651.51 2836.00 1662.92 2836.00 1668.56L2836.00 1678.79L2839.38 1681.76C2841.24 1683.39 2844.15 1685.34 2845.86 1686.10C2847.57 1686.86 2849.19 1688.05 2849.46 1688.74C2849.72 1689.44 2847.71 1692.36 2844.97 1695.23C2842.24 1698.09 2840.00 1700.77 2840.00 1701.18C2840.00 1704.31 2804.88 1730.00 2800.60 1730.00C2800.01 1730.00 2795.59 1731.87 2790.77 1734.16L2782.00 1738.33L2776.25 1736.66C2763.99 1733.10 2744.60 1726.78 2723.50 1719.46C2711.40 1715.27 2697.45 1710.55 2692.50 1708.99C2687.55 1707.42 2674.95 1703.01 2664.50 1699.19C2654.05 1695.38 2642.57 1691.31 2639.00 1690.16C2635.43 1689.01 2628.45 1686.75 2623.50 1685.15C2598.63 1677.07 2573.27 1678.84 2550.50 1690.24C2535.07 1697.97 2519.15 1712.86 2508.52 1729.50C2493.22 1753.44 2486.10 1772.06 2479.54 1805.28C2476.24 1821.99 2475.01 1836.93 2475.00 1860.25C2475.00 1879.32 2477.73 1914.52 2480.02 1925.00C2480.56 1927.47 2481.90 1936.70 2482.99 1945.50C2484.07 1954.30 2486.07 1968.70 2487.41 1977.50C2488.76 1986.30 2490.38 1997.55 2491.01 2002.50C2491.64 2007.45 2493.27 2020.05 2494.64 2030.50C2496.01 2040.95 2497.80 2055.35 2498.62 2062.50C2500.45 2078.40 2501.26 2134.34 2499.91 2152.00C2498.50 2170.68 2493.97 2199.76 2489.56 2218.50C2488.26 2224.00 2486.48 2231.67 2485.59 2235.54C2482.65 2248.32 2474.43 2272.33 2465.23 2295.00C2460.78 2305.96 2458.81 2310.52 2452.53 2324.45C2451.77 2326.13 2449.71 2330.88 2447.96 2335.00C2446.20 2339.12 2439.93 2352.40 2434.03 2364.50C2418.22 2396.92 2418.33 2396.66 2417.07 2406.29C2416.43 2411.12 2414.79 2421.25 2413.41 2428.79C2410.84 2442.81 2408.21 2458.11 2405.48 2475.00C2403.02 2490.15 2400.14 2505.78 2398.00 2515.50C2396.91 2520.45 2394.64 2532.38 2392.96 2542.00C2391.27 2551.62 2388.77 2565.80 2387.41 2573.50C2386.04 2581.20 2384.29 2591.55 2383.51 2596.50C2382.74 2601.45 2381.41 2609.32 2380.56 2614.00C2379.71 2618.68 2377.66 2630.82 2376.01 2641.00C2374.36 2651.18 2372.09 2664.68 2370.97 2671.00C2369.85 2677.32 2368.25 2686.32 2367.42 2691.00C2366.59 2695.68 2364.85 2706.70 2363.55 2715.50C2362.25 2724.30 2360.26 2736.90 2359.13 2743.50C2356.22 2760.47 2352.43 2784.44 2350.44 2798.50C2348.92 2809.24 2348.81 2817.42 2349.40 2876.50C2349.76 2912.80 2350.33 2945.90 2350.66 2950.06L2351.26 2957.63L2360.88 2959.19C2374.07 2961.32 2380.35 2963.96 2393.99 2973.08C2407.22 2981.92 2418.24 2992.85 2424.27 3003.09C2429.35 3011.73 2435.82 3028.53 2437.55 3037.59C2439.29 3046.71 2441.45 3072.38 2440.65 3074.47C2440.13 3075.83 2427.00 3076.00 2320.53 3076.00L2201.00 3076.00L2200.88 2765.75C2200.82 2595.11 2200.48 2454.26 2200.13 2452.75L2199.50 2450.00L2193.50 2453.66C2186.55 2457.90 2167.37 2467.16 2154.79 2472.36C2143.66 2476.96 2118.43 2484.80 2111.13 2485.93C2108.03 2486.41 2100.10 2487.75 2093.50 2488.90C2073.95 2492.32 2050.92 2493.49 2029.73 2492.14C2019.70 2491.51 2009.92 2490.60 2008.00 2490.13C2006.08 2489.66 2000.00 2488.52 1994.50 2487.59C1969.21 2483.34 1950.64 2477.46 1929.50 2467.01C1920.70 2462.66 1909.92 2456.83 1905.54 2454.05C1901.16 2451.27 1897.11 2449.00 1896.54 2449.00C1895.82 2449.00 1895.61 2545.72 1895.85 2762.50L1896.21 3076.00L1777.27 3076.00C1711.85 3076.00 1658.03 3075.70 1657.67 3075.33ZM2657.50 1363.99L2676.50 1363.98L2673.00 1361.34C2671.07 1359.89 2661.04 1350.22 2650.69 1339.85L2631.88 1321.00L2621.69 1321.00C2601.43 1321.01 2568.08 1322.33 2566.80 1323.19C2565.24 1324.23 2582.81 1341.65 2594.84 1351.00C2599.05 1354.26 2604.26 1358.40 2606.40 1360.19C2611.13 1364.13 2615.92 1365.03 2629.00 1364.44C2634.22 1364.20 2647.05 1364.00 2657.50 1363.99ZM1490.84 1359.68C1508.46 1346.23 1513.38 1342.10 1521.97 1333.54C1527.18 1328.35 1531.11 1323.78 1530.71 1323.38C1530.31 1322.98 1517.73 1322.31 1502.74 1321.89C1487.76 1321.47 1473.25 1320.87 1470.50 1320.55C1467.75 1320.24 1464.88 1320.39 1464.12 1320.88C1462.59 1321.88 1421.00 1363.14 1421.00 1363.67C1421.00 1363.85 1435.44 1364.00 1453.09 1364.00L1485.19 1364.00L1490.84 1359.68ZM2498.00 3069.06C2498.00 3061.72 2501.03 3044.05 2503.54 3036.80C2504.36 3034.44 2506.22 3030.25 2507.68 3027.50C2521.01 3002.39 2542.90 2984.61 2565.52 2980.52C2570.46 2979.63 2575.95 2978.64 2577.71 2978.33C2580.20 2977.88 2581.16 2977.04 2581.95 2974.63C2583.33 2970.37 2586.50 2951.14 2588.49 2934.89C2589.39 2927.52 2591.45 2911.38 2593.06 2899.00C2597.83 2862.49 2598.97 2851.37 2599.66 2834.85L2600.30 2819.21L2587.90 2806.82C2575.15 2794.09 2566.31 2786.50 2544.98 2770.00C2524.73 2754.33 2489.99 2723.61 2479.59 2712.17C2471.43 2703.19 2457.00 2684.38 2457.00 2682.72C2457.00 2682.48 2453.36 2676.08 2448.92 2668.48C2435.60 2645.73 2419.00 2610.08 2419.00 2604.23C2419.00 2602.65 2420.09 2595.76 2421.43 2588.93C2422.77 2582.09 2424.77 2571.55 2425.89 2565.50C2427.01 2559.45 2429.09 2548.20 2430.51 2540.50C2431.93 2532.80 2433.76 2523.57 2434.58 2520.00C2437.72 2506.24 2440.27 2496.47 2440.91 2495.76C2441.27 2495.36 2445.60 2494.33 2450.54 2493.48C2455.47 2492.62 2464.68 2491.00 2471.00 2489.88C2477.32 2488.75 2486.78 2487.22 2492.01 2486.48C2497.24 2485.73 2503.74 2484.62 2506.47 2484.01C2509.19 2483.40 2514.81 2482.46 2518.96 2481.93C2561.88 2476.45 2590.10 2476.69 2618.50 2482.78L2626.50 2484.50L2633.93 2499.00C2641.67 2514.10 2656.32 2546.34 2663.19 2563.39L2667.18 2573.28L2665.98 2586.89C2665.28 2594.88 2664.96 2610.01 2665.22 2623.50C2665.60 2644.18 2665.91 2647.56 2668.28 2657.00C2672.55 2673.99 2679.46 2692.43 2687.75 2708.94C2699.05 2731.44 2703.71 2738.19 2720.90 2756.84C2725.63 2761.98 2729.85 2767.12 2730.28 2768.25C2731.35 2771.11 2723.59 2822.67 2718.95 2843.50C2718.46 2845.70 2716.90 2853.80 2715.49 2861.50C2710.66 2887.88 2706.90 2907.50 2704.94 2916.50C2703.25 2924.31 2695.94 2962.22 2684.99 3020.00C2683.27 3029.07 2680.16 3045.28 2678.07 3056.00L2674.28 3075.50L2586.14 3075.76L2498.00 3076.01L2498.00 3069.06ZM3090.98 1809.76C3090.96 1809.07 3090.95 1788.47 3090.95 1764.00L3090.95 1719.50L3136.98 1719.24L3183.02 1718.98L3182.76 1764.74L3182.50 1810.50L3136.75 1810.76C3100.49 1810.97 3091.00 1810.76 3090.98 1809.76ZM3218.46 1809.75C3218.19 1809.06 3218.10 1788.47 3218.24 1764.00L3218.50 1719.50L3264.25 1719.24L3310.00 1718.98L3310.00 1764.99L3310.00 1811.00L3264.47 1811.00C3228.97 1811.00 3218.83 1810.72 3218.46 1809.75ZM3345.00 1765.00L3345.00 1719.00L3391.00 1719.00L3437.00 1719.00L3437.00 1765.00L3437.00 1811.00L3391.00 1811.00L3345.00 1811.00L3345.00 1765.00ZM3472.67 1810.33C3472.30 1809.97 3472.00 1789.27 3472.00 1764.33L3472.00 1719.00L3517.50 1719.00L3563.00 1719.00L3563.00 1765.00L3563.00 1811.00L3518.17 1811.00C3493.51 1811.00 3473.03 1810.70 3472.67 1810.33ZM3599.00 1765.01L3599.00 1719.00L3643.86 1719.00L3688.72 1719.00L3689.11 1727.25C3689.32 1731.79 3689.50 1752.38 3689.50 1773.00L3689.50 1810.50L3644.25 1810.76L3599.00 1811.02L3599.00 1765.01ZM3090.94 1682.25C3090.91 1681.84 3090.86 1661.03 3090.84 1636.00L3090.80 1590.50L3136.90 1590.24L3183.00 1589.98L3183.00 1636.49L3183.00 1683.00L3137.00 1683.00C3111.70 1683.00 3090.97 1682.66 3090.94 1682.25ZM3218.00 1636.50L3218.00 1590.00L3264.00 1590.00L3310.00 1590.00L3310.00 1636.50L3310.00 1683.00L3264.00 1683.00L3218.00 1683.00L3218.00 1636.50ZM3345.00 1636.50L3345.00 1590.00L3391.00 1590.00L3437.00 1590.00L3437.00 1636.50L3437.00 1683.00L3391.00 1683.00L3345.00 1683.00L3345.00 1636.50ZM3472.00 1636.50L3472.00 1590.00L3517.50 1590.00L3563.00 1590.00L3563.00 1636.50L3563.00 1683.00L3517.50 1683.00L3472.00 1683.00L3472.00 1636.50ZM407.68 1668.34C407.30 1667.97 407.00 1647.27 407.00 1622.33L407.00 1577.00L453.01 1577.00L499.02 1577.00L498.76 1622.75L498.50 1668.50L453.43 1668.76C428.64 1668.90 408.05 1668.72 407.68 1668.34ZM546.67 1668.33C546.30 1667.97 546.00 1647.27 546.00 1622.33L546.00 1577.00L592.00 1577.00L638.00 1577.00L638.00 1623.00L638.00 1669.00L592.67 1669.00C567.73 1669.00 547.03 1668.70 546.67 1668.33ZM685.68 1668.34C685.30 1667.97 685.00 1647.27 685.00 1622.33L685.00 1577.00L730.51 1577.00L776.02 1577.00L775.76 1622.75L775.50 1668.50L730.93 1668.76C706.41 1668.90 686.05 1668.72 685.68 1668.34ZM824.00 1623.00L824.00 1577.00L869.00 1577.00L914.00 1577.00L914.00 1623.00L914.00 1669.00L869.00 1669.00L824.00 1669.00L824.00 1623.00ZM962.00 1623.01L962.00 1577.00L1007.44 1577.00L1052.88 1577.00L1053.48 1581.25C1053.81 1583.59 1053.95 1604.17 1053.79 1627.00L1053.50 1668.50L1007.75 1668.76L962.00 1669.02L962.00 1623.01ZM1102.00 1623.01L1102.00 1577.00L1147.50 1577.00L1193.00 1577.00L1193.10 1594.25C1193.15 1603.74 1193.26 1624.33 1193.35 1640.00L1193.50 1668.50L1147.75 1668.76L1102.00 1669.02L1102.00 1623.01ZM2953.00 1623.03L2953.00 1577.00L2998.01 1577.00L3043.02 1577.00L3042.76 1622.75L3042.50 1668.50L2997.75 1668.78L2953.00 1669.06L2953.00 1623.03ZM3091.00 1508.51L3091.00 1462.00L3137.01 1462.00L3183.02 1462.00L3182.76 1508.25L3182.50 1554.50L3136.75 1554.76L3091.00 1555.02L3091.00 1508.51ZM3218.67 1554.33C3218.30 1553.97 3218.00 1533.04 3218.00 1507.83L3218.00 1462.00L3264.00 1462.00L3310.00 1462.00L3310.00 1508.50L3310.00 1555.00L3264.67 1555.00C3239.73 1555.00 3219.03 1554.70 3218.67 1554.33ZM3345.67 1554.33C3345.30 1553.97 3345.00 1533.04 3345.00 1507.83L3345.00 1462.00L3391.00 1462.00L3437.00 1462.00L3437.00 1508.50L3437.00 1555.00L3391.67 1555.00C3366.73 1555.00 3346.03 1554.70 3345.67 1554.33ZM3472.67 1554.33C3472.30 1553.97 3472.00 1533.04 3472.00 1507.83L3472.00 1462.00L3517.50 1462.00L3563.00 1462.00L3563.00 1508.50L3563.00 1555.00L3518.17 1555.00C3493.51 1555.00 3473.03 1554.70 3472.67 1554.33ZM744.00 1506.02C744.00 1504.22 749.14 1490.38 754.02 1479.00C755.09 1476.53 757.78 1469.62 760.02 1463.65C762.25 1457.67 765.15 1450.66 766.47 1448.07C767.78 1445.47 771.06 1437.98 773.75 1431.42C784.75 1404.59 811.79 1349.60 827.30 1322.50C829.51 1318.65 833.42 1311.67 836.01 1307.00C842.52 1295.22 855.78 1272.85 862.81 1261.76C866.05 1256.67 871.42 1247.97 874.75 1242.44C892.86 1212.38 943.78 1140.94 968.45 1111.00C975.66 1102.26 1005.89 1066.89 1006.92 1066.00C1007.24 1065.72 1010.87 1061.67 1014.98 1057.00C1019.09 1052.33 1024.76 1046.03 1027.56 1043.00C1030.37 1039.97 1037.80 1031.90 1044.08 1025.05C1089.70 975.30 1177.14 897.03 1224.00 864.00C1228.12 861.09 1234.20 856.60 1237.50 854.02C1253.69 841.39 1316.78 798.55 1336.50 786.80C1361.84 771.71 1370.58 766.58 1385.50 758.03C1431.45 731.72 1504.66 697.00 1545.94 681.95C1551.75 679.84 1563.47 675.35 1572.00 671.99C1592.88 663.75 1617.73 655.11 1639.50 648.52C1649.40 645.52 1664.25 640.98 1672.50 638.43C1719.80 623.82 1802.40 606.32 1860.50 598.60C1910.08 592.02 1936.21 589.70 1986.00 587.48C2051.18 584.57 2136.40 586.29 2182.50 591.46C2189.65 592.26 2200.45 593.40 2206.50 593.99C2259.33 599.17 2344.37 614.80 2400.50 629.64C2441.24 640.41 2485.25 654.52 2529.50 671.00C2586.24 692.13 2607.01 701.14 2665.00 729.78C2713.10 753.53 2734.48 765.52 2782.51 795.67C2838.54 830.84 2909.38 883.39 2951.42 920.96C2958.52 927.31 2968.20 935.85 2972.92 939.94C2989.14 953.99 3006.56 970.47 3036.87 1000.46C3096.65 1059.59 3148.47 1121.42 3198.67 1193.50C3205.66 1203.54 3238.48 1255.49 3239.49 1258.10C3239.94 1259.29 3233.45 1259.47 3196.89 1259.31C3173.17 1259.21 3153.21 1258.91 3152.53 1258.65C3151.86 1258.39 3149.13 1255.10 3146.47 1251.34C3114.65 1206.35 3081.69 1163.19 3056.48 1133.50C2996.87 1063.31 2896.93 969.39 2830.40 921.04C2792.45 893.46 2765.63 874.74 2751.74 866.15C2748.31 864.02 2738.97 858.24 2731.00 853.30C2716.30 844.18 2692.72 830.40 2670.00 817.64C2653.98 808.65 2597.77 781.05 2577.84 772.40C2548.39 759.61 2532.90 753.00 2532.40 753.00C2532.12 753.00 2525.05 750.25 2516.70 746.90C2489.44 735.95 2453.92 723.57 2428.50 716.15C2423.00 714.54 2409.95 710.68 2399.50 707.57C2349.92 692.78 2293.14 680.94 2217.00 669.51C2201.74 667.22 2159.21 663.12 2137.00 661.79C2108.79 660.11 1995.25 660.11 1971.00 661.78C1943.75 663.67 1918.68 665.87 1899.69 668.04C1870.87 671.33 1802.55 683.41 1772.00 690.61C1766.22 691.97 1758.12 693.76 1754.00 694.60C1742.66 696.89 1715.05 704.38 1691.00 711.68C1679.17 715.28 1665.00 719.50 1659.50 721.07C1591.52 740.43 1477.87 790.75 1402.50 834.84C1378.61 848.82 1366.01 856.81 1331.00 880.17C1261.72 926.40 1214.49 964.46 1152.65 1023.86C1097.47 1076.89 1067.25 1109.77 1030.31 1157.00C1027.94 1160.03 1025.57 1163.03 1025.03 1163.68C1017.61 1172.65 1006.10 1187.36 1000.91 1194.50C997.31 1199.45 992.01 1206.73 989.14 1210.69C959.68 1251.16 921.78 1310.62 902.26 1347.00C899.45 1352.22 895.54 1359.18 893.57 1362.46C888.55 1370.78 859.21 1430.12 852.42 1445.65C849.34 1452.72 844.12 1464.80 840.83 1472.50C837.55 1480.20 833.26 1489.88 831.31 1494.00C829.36 1498.12 827.14 1502.96 826.37 1504.75L824.97 1508.00L784.49 1508.00C744.81 1508.00 744.00 1507.96 744.00 1506.02ZM3090.78 1425.76C3090.54 1425.07 3090.37 1404.47 3090.42 1380.00L3090.50 1335.50L3136.76 1335.24L3183.02 1334.98L3182.76 1380.74L3182.50 1426.50L3136.86 1426.76C3100.87 1426.97 3091.13 1426.75 3090.78 1425.76ZM3218.59 1426.26C3218.27 1425.93 3218.00 1405.27 3218.00 1380.33L3218.00 1335.00L3264.00 1335.00L3310.00 1335.00L3310.00 1381.04L3310.00 1427.07L3264.59 1426.96C3239.62 1426.90 3218.92 1426.58 3218.59 1426.26ZM3345.50 1426.17C3345.22 1425.89 3345.00 1405.27 3345.00 1380.33L3345.00 1335.00L3391.01 1335.00L3437.02 1335.00L3436.76 1380.75L3436.50 1426.50L3391.25 1426.58C3366.36 1426.63 3345.77 1426.44 3345.50 1426.17ZM3472.67 1426.33C3472.30 1425.97 3472.00 1405.27 3472.00 1380.33L3472.00 1335.00L3517.50 1335.00L3563.00 1335.00L3563.00 1381.00L3563.00 1427.00L3518.17 1427.00C3493.51 1427.00 3473.03 1426.70 3472.67 1426.33ZM3599.00 1380.74L3599.00 1334.98L3644.25 1335.24L3689.50 1335.50L3689.50 1381.00L3689.50 1426.50L3644.25 1426.50L3599.01 1426.50L3599.00 1380.74ZM2539.00 1188.84C2536.53 1188.33 2529.10 1186.58 2522.50 1184.96C2515.90 1183.34 2503.30 1180.44 2494.50 1178.52C2485.70 1176.59 2473.79 1173.74 2468.03 1172.17C2457.56 1169.33 2457.56 1169.33 2455.73 1165.15C2454.73 1162.85 2453.00 1156.36 2451.89 1150.73C2450.78 1145.10 2448.99 1136.49 2447.92 1131.58L2445.96 1122.66L2448.23 1119.41C2449.48 1117.62 2457.25 1107.04 2465.50 1095.89C2473.75 1084.74 2483.20 1071.94 2486.50 1067.44C2500.36 1048.54 2515.15 1029.49 2516.62 1028.67C2517.49 1028.19 2518.57 1028.17 2519.04 1028.65C2519.51 1029.12 2520.85 1036.92 2522.02 1046.00C2523.20 1055.08 2525.45 1069.25 2527.02 1077.50C2529.96 1092.85 2531.15 1100.04 2539.96 1155.29C2542.75 1172.77 2545.13 1187.56 2545.26 1188.16C2545.61 1189.73 2544.09 1189.90 2539.00 1188.84ZM1553.01 1186.25C1553.01 1184.74 1553.45 1180.80 1553.99 1177.50C1554.52 1174.20 1556.54 1160.84 1558.46 1147.82C1561.98 1124.03 1566.21 1099.66 1569.87 1082.00C1570.96 1076.78 1572.58 1067.55 1573.47 1061.50C1575.08 1050.57 1577.30 1037.46 1578.58 1031.25C1578.95 1029.46 1579.57 1028.00 1579.95 1028.00C1581.14 1028.00 1584.34 1031.99 1594.36 1046.00C1599.67 1053.42 1607.29 1063.78 1611.29 1069.00C1615.29 1074.22 1624.34 1086.15 1631.41 1095.50C1638.48 1104.85 1645.51 1113.85 1647.01 1115.50C1652.09 1121.05 1652.09 1120.86 1647.41 1144.00C1645.02 1155.83 1642.63 1166.48 1642.09 1167.67C1641.37 1169.29 1639.65 1170.12 1635.31 1170.97C1632.11 1171.60 1623.20 1173.64 1615.50 1175.51C1607.80 1177.38 1596.70 1179.82 1590.84 1180.93C1584.97 1182.04 1578.45 1183.62 1576.34 1184.43C1572.75 1185.82 1557.48 1189.00 1554.39 1189.00C1553.54 1189.00 1553.00 1187.93 1553.01 1186.25Z" fill="#2E1D5E" fill-rule="evenodd"/>
</svg>
